<svg width="29" height="29" viewBox="0 0 29 29" fill="none" xmlns="http://www.w3.org/2000/svg">
<path d="M7.4332 1.89068C6.48225 2.14389 5.73949 2.90353 5.48628 3.86574C5.35686 4.34966 5.35686 24.4604 5.48628 24.9443C5.73949 25.9178 6.48788 26.6718 7.45571 26.925C7.90587 27.0375 9.20007 27.0375 9.65022 26.925C10.6181 26.6718 11.3664 25.9178 11.6197 24.9443C11.7491 24.4604 11.7491 4.34966 11.6197 3.86574C11.3664 2.89228 10.6181 2.13827 9.65022 1.88505C9.21132 1.77251 7.86085 1.77251 7.4332 1.89068Z" fill="#E1E1E6"/>
<path d="M19.1373 1.89068C18.1863 2.14389 17.4436 2.90353 17.1903 3.86574C17.0609 4.34966 17.0609 24.4604 17.1903 24.9443C17.4436 25.9178 18.1919 26.6718 19.1598 26.925C19.6099 27.0375 20.9041 27.0375 21.3543 26.925C22.3221 26.6718 23.0705 25.9178 23.3237 24.9443C23.4531 24.4604 23.4531 4.34966 23.3237 3.86574C23.0705 2.89228 22.3221 2.13827 21.3543 1.88505C20.9154 1.77251 19.5649 1.77251 19.1373 1.89068Z" fill="#E1E1E6"/>
</svg>
