<svg width="29" height="25" viewBox="0 0 29 25" fill="none" xmlns="http://www.w3.org/2000/svg">
<path d="M19.9501 0.115761C19.4886 0.284603 19.134 0.864293 19.2184 1.29203C19.2747 1.55092 19.4886 1.90548 19.6799 2.04056C19.7643 2.10247 20.1076 2.28819 20.4397 2.45141C23.9516 4.16796 26.2985 7.67987 26.5574 11.6139C26.8557 16.0994 24.4356 20.3205 20.4397 22.2734C20.1076 22.4366 19.7643 22.6224 19.6799 22.6843C19.4886 22.8193 19.2747 23.1739 19.2184 23.4328C19.0833 24.0744 19.8094 24.7723 20.4903 24.6597C21.0306 24.5697 22.9498 23.4666 23.8616 22.718C26.0846 20.9002 27.7505 18.3 28.4147 15.5985C29.5571 10.9441 28.1895 6.16592 24.7508 2.81723C23.7434 1.83232 22.6628 1.0669 21.4133 0.453445C20.6085 0.0538526 20.3046 -0.013684 19.9501 0.115761Z" fill="#E1E1E6"/>
<path d="M11.7612 1.92802C11.6374 1.97867 10.478 3.09866 8.60952 4.96154L5.65479 7.91627H3.34729C1.85022 7.91627 0.960991 7.93878 0.814661 7.97818C0.52763 8.05697 0.0886419 8.49596 0.0379894 8.76048C-0.0126631 9.00249 -0.0126631 15.7224 0.0379894 15.9644C0.0886419 16.2289 0.52763 16.6679 0.814661 16.7467C0.960991 16.7861 1.85022 16.8086 3.34729 16.8086H5.65479L8.58138 19.7408C10.5456 21.7106 11.5811 22.7068 11.7331 22.78C12.2734 23.0332 12.8925 22.8081 13.1739 22.2566C13.2752 22.054 13.2808 21.7725 13.2808 12.3624C13.2808 2.95233 13.2752 2.67092 13.1739 2.46831C12.8981 1.93365 12.2903 1.69727 11.7612 1.92802Z" fill="#E1E1E6"/>
<path d="M18.0759 4.24113C17.6707 4.43811 17.3949 4.95589 17.4737 5.37799C17.5581 5.8395 17.7889 6.07025 18.5768 6.49235C19.86 7.1846 20.7492 8.06821 21.3908 9.28949C21.9086 10.28 22.1394 11.2087 22.1394 12.3624C22.1394 13.5162 21.9086 14.4448 21.3908 15.4353C20.7492 16.6566 19.86 17.5402 18.5768 18.2325C17.9971 18.542 17.7101 18.7671 17.5863 18.9979C17.2036 19.7408 17.7382 20.5794 18.5881 20.5794C18.8357 20.5794 18.9933 20.5287 19.4717 20.298C21.6554 19.2286 23.4001 17.1181 24.0473 14.7543C24.3005 13.837 24.3399 13.5105 24.3399 12.3624C24.3399 11.6702 24.3118 11.1186 24.2611 10.871C23.8897 8.94055 23.0793 7.40972 21.7285 6.05899C20.9969 5.32734 20.3384 4.85459 19.4717 4.42685C18.982 4.19047 18.8413 4.14545 18.5768 4.14545C18.4023 4.14545 18.1772 4.19047 18.0759 4.24113Z" fill="#E1E1E6"/>
<path d="M16.4325 8.2821C15.9935 8.47908 15.7515 8.83927 15.7459 9.28952C15.7403 9.78479 15.8753 9.95363 16.8546 10.6628C17.2486 10.9498 17.333 11.0398 17.5019 11.3775C17.6876 11.749 17.6988 11.794 17.6988 12.3624C17.6988 12.9309 17.6876 12.9759 17.5019 13.3473C17.3274 13.6907 17.2486 13.7751 16.8321 14.079C15.8979 14.7431 15.7403 14.9401 15.7459 15.4354C15.7515 15.8912 16.0048 16.2571 16.4438 16.4372C16.7477 16.5666 16.9503 16.5497 17.4118 16.3471C18.2842 15.9757 18.982 15.2947 19.4435 14.3604C19.7868 13.6681 19.9219 13.1166 19.9219 12.3624C19.9219 10.6853 18.9877 9.12631 17.5581 8.43968C17.0797 8.2033 16.7196 8.15265 16.4325 8.2821Z" fill="#E1E1E6"/>
</svg>
